<mxfile host="Electron" modified="2024-06-01T08:55:51.157Z" agent="Mozilla/5.0 (Windows NT 10.0; Win64; x64) AppleWebKit/537.36 (KHTML, like Gecko) draw.io/21.2.8 Chrome/112.0.5615.165 Electron/24.2.0 Safari/537.36" etag="SOC93nsxQIJUpQTZAV1q" version="21.2.8" type="device">
  <diagram name="第 1 页" id="4vGoqL806USBXNcvkwfP">
    <mxGraphModel dx="1221" dy="823" grid="1" gridSize="10" guides="1" tooltips="1" connect="1" arrows="1" fold="1" page="1" pageScale="1" pageWidth="1169" pageHeight="827" math="0" shadow="0">
      <root>
        <mxCell id="0" />
        <mxCell id="1" parent="0" />
        <mxCell id="kAIDbHxkt5lAU41MDpZ3-1" value="" style="endArrow=none;html=1;rounded=0;" edge="1" parent="1">
          <mxGeometry width="50" height="50" relative="1" as="geometry">
            <mxPoint x="280" y="820" as="sourcePoint" />
            <mxPoint x="280" as="targetPoint" />
          </mxGeometry>
        </mxCell>
        <mxCell id="kAIDbHxkt5lAU41MDpZ3-2" value="" style="endArrow=none;html=1;rounded=0;dashed=1;" edge="1" parent="1">
          <mxGeometry width="50" height="50" relative="1" as="geometry">
            <mxPoint y="110" as="sourcePoint" />
            <mxPoint x="280" y="110" as="targetPoint" />
          </mxGeometry>
        </mxCell>
        <mxCell id="kAIDbHxkt5lAU41MDpZ3-3" value="&lt;b style=&quot;&quot;&gt;&lt;font style=&quot;font-size: 19px;&quot;&gt;USTC 银行&lt;/font&gt;&lt;/b&gt;" style="text;html=1;strokeColor=none;fillColor=none;align=center;verticalAlign=middle;whiteSpace=wrap;rounded=0;" vertex="1" parent="1">
          <mxGeometry x="94" y="28" width="124" height="36" as="geometry" />
        </mxCell>
        <mxCell id="kAIDbHxkt5lAU41MDpZ3-4" value="图标" style="ellipse;whiteSpace=wrap;html=1;aspect=fixed;rounded=0;" vertex="1" parent="1">
          <mxGeometry x="35" y="21" width="48" height="48" as="geometry" />
        </mxCell>
        <mxCell id="kAIDbHxkt5lAU41MDpZ3-5" value="" style="endArrow=none;html=1;rounded=0;dashed=1;" edge="1" parent="1">
          <mxGeometry width="50" height="50" relative="1" as="geometry">
            <mxPoint y="200" as="sourcePoint" />
            <mxPoint x="280" y="200" as="targetPoint" />
          </mxGeometry>
        </mxCell>
        <mxCell id="kAIDbHxkt5lAU41MDpZ3-6" value="" style="endArrow=none;html=1;rounded=0;dashed=1;" edge="1" parent="1">
          <mxGeometry width="50" height="50" relative="1" as="geometry">
            <mxPoint y="290" as="sourcePoint" />
            <mxPoint x="280" y="290" as="targetPoint" />
          </mxGeometry>
        </mxCell>
        <mxCell id="kAIDbHxkt5lAU41MDpZ3-7" value="" style="endArrow=none;html=1;rounded=0;dashed=1;" edge="1" parent="1">
          <mxGeometry width="50" height="50" relative="1" as="geometry">
            <mxPoint y="380" as="sourcePoint" />
            <mxPoint x="280" y="380" as="targetPoint" />
          </mxGeometry>
        </mxCell>
        <mxCell id="kAIDbHxkt5lAU41MDpZ3-8" value="" style="endArrow=none;html=1;rounded=0;dashed=1;" edge="1" parent="1">
          <mxGeometry width="50" height="50" relative="1" as="geometry">
            <mxPoint y="470" as="sourcePoint" />
            <mxPoint x="280" y="470" as="targetPoint" />
          </mxGeometry>
        </mxCell>
        <mxCell id="kAIDbHxkt5lAU41MDpZ3-9" value="" style="endArrow=none;html=1;rounded=0;dashed=1;" edge="1" parent="1">
          <mxGeometry width="50" height="50" relative="1" as="geometry">
            <mxPoint y="560" as="sourcePoint" />
            <mxPoint x="280" y="560" as="targetPoint" />
          </mxGeometry>
        </mxCell>
        <mxCell id="kAIDbHxkt5lAU41MDpZ3-10" value="&lt;b&gt;&lt;font style=&quot;font-size: 15px;&quot;&gt;仪表盘&lt;/font&gt;&lt;/b&gt;" style="rounded=1;whiteSpace=wrap;html=1;" vertex="1" parent="1">
          <mxGeometry x="10" y="120" width="260" height="70" as="geometry" />
        </mxCell>
        <mxCell id="kAIDbHxkt5lAU41MDpZ3-11" value="&lt;b&gt;&lt;font style=&quot;font-size: 15px;&quot;&gt;个人资料&lt;/font&gt;&lt;/b&gt;" style="rounded=1;whiteSpace=wrap;html=1;" vertex="1" parent="1">
          <mxGeometry x="10" y="210" width="260" height="70" as="geometry" />
        </mxCell>
        <mxCell id="kAIDbHxkt5lAU41MDpZ3-12" value="&lt;b&gt;&lt;font style=&quot;font-size: 15px;&quot;&gt;储蓄账户&lt;/font&gt;&lt;/b&gt;" style="rounded=1;whiteSpace=wrap;html=1;fillColor=#1ba1e2;fontColor=#ffffff;strokeColor=#006EAF;" vertex="1" parent="1">
          <mxGeometry x="10" y="300" width="260" height="70" as="geometry" />
        </mxCell>
        <mxCell id="kAIDbHxkt5lAU41MDpZ3-13" value="&lt;b&gt;&lt;font style=&quot;font-size: 15px;&quot;&gt;信用卡账户&lt;/font&gt;&lt;/b&gt;" style="rounded=1;whiteSpace=wrap;html=1;" vertex="1" parent="1">
          <mxGeometry x="10" y="390" width="260" height="70" as="geometry" />
        </mxCell>
        <mxCell id="kAIDbHxkt5lAU41MDpZ3-14" value="&lt;b&gt;&lt;font style=&quot;font-size: 15px;&quot;&gt;贷款账户&lt;/font&gt;&lt;/b&gt;" style="rounded=1;whiteSpace=wrap;html=1;" vertex="1" parent="1">
          <mxGeometry x="10" y="480" width="260" height="70" as="geometry" />
        </mxCell>
        <mxCell id="kAIDbHxkt5lAU41MDpZ3-15" value="&lt;b&gt;&lt;font style=&quot;font-size: 15px;&quot;&gt;登出&lt;/font&gt;&lt;/b&gt;" style="rounded=1;whiteSpace=wrap;html=1;fillColor=#E55235;strokeColor=#B20000;fontColor=#ffffff;" vertex="1" parent="1">
          <mxGeometry x="10" y="690" width="260" height="60" as="geometry" />
        </mxCell>
        <mxCell id="kAIDbHxkt5lAU41MDpZ3-16" value="&lt;b&gt;左边这一部分背景色为灰色&lt;/b&gt;" style="text;html=1;align=center;verticalAlign=middle;resizable=0;points=[];autosize=1;strokeColor=none;fillColor=none;" vertex="1" parent="1">
          <mxGeometry x="45" y="618" width="170" height="30" as="geometry" />
        </mxCell>
        <mxCell id="kAIDbHxkt5lAU41MDpZ3-17" value="&lt;b&gt;&lt;font style=&quot;font-size: 18px;&quot;&gt;你好，Username！&lt;/font&gt;&lt;/b&gt;" style="text;html=1;strokeColor=none;fillColor=none;align=center;verticalAlign=middle;whiteSpace=wrap;rounded=0;" vertex="1" parent="1">
          <mxGeometry x="310" y="28" width="170" height="30" as="geometry" />
        </mxCell>
        <mxCell id="kAIDbHxkt5lAU41MDpZ3-18" value="用户头像" style="ellipse;whiteSpace=wrap;html=1;aspect=fixed;" vertex="1" parent="1">
          <mxGeometry x="1080" y="18" width="54" height="54" as="geometry" />
        </mxCell>
        <mxCell id="kAIDbHxkt5lAU41MDpZ3-19" value="&lt;b&gt;右边这一部分背景色为白色&lt;/b&gt;" style="text;html=1;align=center;verticalAlign=middle;resizable=0;points=[];autosize=1;strokeColor=none;fillColor=none;" vertex="1" parent="1">
          <mxGeometry x="630" y="730" width="170" height="30" as="geometry" />
        </mxCell>
        <mxCell id="kAIDbHxkt5lAU41MDpZ3-20" value="&lt;b&gt;&lt;font style=&quot;font-size: 17px;&quot;&gt;储蓄账户&lt;/font&gt;&lt;/b&gt;" style="text;html=1;align=center;verticalAlign=middle;resizable=0;points=[];autosize=1;strokeColor=none;fillColor=none;" vertex="1" parent="1">
          <mxGeometry x="310" y="128" width="90" height="30" as="geometry" />
        </mxCell>
        <mxCell id="kAIDbHxkt5lAU41MDpZ3-47" value="" style="rounded=1;whiteSpace=wrap;html=1;" vertex="1" parent="1">
          <mxGeometry x="320" y="245" width="780" height="180" as="geometry" />
        </mxCell>
        <mxCell id="kAIDbHxkt5lAU41MDpZ3-48" value="&lt;b&gt;&lt;font style=&quot;font-size: 18px;&quot;&gt;账户号：123456&lt;/font&gt;&lt;/b&gt;" style="text;html=1;strokeColor=none;fillColor=none;align=center;verticalAlign=middle;whiteSpace=wrap;rounded=0;" vertex="1" parent="1">
          <mxGeometry x="300" y="250" width="215" height="30" as="geometry" />
        </mxCell>
        <mxCell id="kAIDbHxkt5lAU41MDpZ3-51" value="&lt;b&gt;&lt;font style=&quot;font-size: 16px;&quot;&gt;余额：￥123&lt;/font&gt;&lt;/b&gt;" style="text;html=1;strokeColor=none;fillColor=none;align=center;verticalAlign=middle;whiteSpace=wrap;rounded=0;" vertex="1" parent="1">
          <mxGeometry x="335" y="290" width="100" height="30" as="geometry" />
        </mxCell>
        <mxCell id="kAIDbHxkt5lAU41MDpZ3-52" value="&lt;b&gt;&lt;font style=&quot;font-size: 16px;&quot;&gt;开户银行：东区银行&lt;/font&gt;&lt;/b&gt;" style="text;html=1;strokeColor=none;fillColor=none;align=center;verticalAlign=middle;whiteSpace=wrap;rounded=0;" vertex="1" parent="1">
          <mxGeometry x="600" y="290" width="150" height="30" as="geometry" />
        </mxCell>
        <mxCell id="kAIDbHxkt5lAU41MDpZ3-53" value="&lt;b&gt;&lt;font style=&quot;font-size: 16px;&quot;&gt;绑定员工：123&lt;/font&gt;&lt;/b&gt;" style="text;html=1;strokeColor=none;fillColor=none;align=center;verticalAlign=middle;whiteSpace=wrap;rounded=0;" vertex="1" parent="1">
          <mxGeometry x="910" y="290" width="110" height="30" as="geometry" />
        </mxCell>
        <mxCell id="kAIDbHxkt5lAU41MDpZ3-54" value="&lt;b&gt;&lt;font style=&quot;font-size: 16px;&quot;&gt;利率：5%&lt;/font&gt;&lt;/b&gt;" style="text;html=1;strokeColor=none;fillColor=none;align=center;verticalAlign=middle;whiteSpace=wrap;rounded=0;" vertex="1" parent="1">
          <mxGeometry x="335" y="320" width="90" height="30" as="geometry" />
        </mxCell>
        <mxCell id="kAIDbHxkt5lAU41MDpZ3-55" value="&lt;font style=&quot;font-size: 16px;&quot;&gt;&lt;b&gt;提款额度：10000&lt;/b&gt;&lt;/font&gt;" style="text;html=1;strokeColor=none;fillColor=none;align=center;verticalAlign=middle;whiteSpace=wrap;rounded=0;" vertex="1" parent="1">
          <mxGeometry x="600" y="320" width="130" height="30" as="geometry" />
        </mxCell>
        <mxCell id="kAIDbHxkt5lAU41MDpZ3-56" value="&lt;b&gt;&lt;font style=&quot;font-size: 16px;&quot;&gt;存款&lt;/font&gt;&lt;/b&gt;" style="rounded=1;whiteSpace=wrap;html=1;" vertex="1" parent="1">
          <mxGeometry x="347.5" y="360" width="95" height="40" as="geometry" />
        </mxCell>
        <mxCell id="kAIDbHxkt5lAU41MDpZ3-57" value="&lt;font size=&quot;1&quot; style=&quot;&quot;&gt;&lt;b style=&quot;font-size: 16px;&quot;&gt;取款&lt;/b&gt;&lt;/font&gt;" style="rounded=1;whiteSpace=wrap;html=1;" vertex="1" parent="1">
          <mxGeometry x="600" y="360" width="95" height="40" as="geometry" />
        </mxCell>
        <mxCell id="kAIDbHxkt5lAU41MDpZ3-58" value="&lt;b&gt;&lt;font style=&quot;font-size: 16px;&quot;&gt;转账&lt;/font&gt;&lt;/b&gt;" style="rounded=1;whiteSpace=wrap;html=1;" vertex="1" parent="1">
          <mxGeometry x="910" y="360" width="95" height="40" as="geometry" />
        </mxCell>
        <mxCell id="kAIDbHxkt5lAU41MDpZ3-59" value="&lt;b&gt;&lt;font style=&quot;font-size: 16px;&quot;&gt;添加账户&lt;/font&gt;&lt;/b&gt;" style="rounded=1;whiteSpace=wrap;html=1;" vertex="1" parent="1">
          <mxGeometry x="320" y="180" width="150" height="40" as="geometry" />
        </mxCell>
        <mxCell id="kAIDbHxkt5lAU41MDpZ3-60" value="" style="rounded=1;whiteSpace=wrap;html=1;" vertex="1" parent="1">
          <mxGeometry x="320" y="460" width="780" height="180" as="geometry" />
        </mxCell>
        <mxCell id="kAIDbHxkt5lAU41MDpZ3-61" value="&lt;b&gt;&lt;font style=&quot;font-size: 16px;&quot;&gt;余额：￥123&lt;/font&gt;&lt;/b&gt;" style="text;html=1;strokeColor=none;fillColor=none;align=center;verticalAlign=middle;whiteSpace=wrap;rounded=0;" vertex="1" parent="1">
          <mxGeometry x="335" y="505" width="100" height="30" as="geometry" />
        </mxCell>
        <mxCell id="kAIDbHxkt5lAU41MDpZ3-62" value="&lt;b&gt;&lt;font style=&quot;font-size: 16px;&quot;&gt;开户银行：东区银行&lt;/font&gt;&lt;/b&gt;" style="text;html=1;strokeColor=none;fillColor=none;align=center;verticalAlign=middle;whiteSpace=wrap;rounded=0;" vertex="1" parent="1">
          <mxGeometry x="600" y="505" width="150" height="30" as="geometry" />
        </mxCell>
        <mxCell id="kAIDbHxkt5lAU41MDpZ3-63" value="&lt;b&gt;&lt;font style=&quot;font-size: 16px;&quot;&gt;绑定员工：123&lt;/font&gt;&lt;/b&gt;" style="text;html=1;strokeColor=none;fillColor=none;align=center;verticalAlign=middle;whiteSpace=wrap;rounded=0;" vertex="1" parent="1">
          <mxGeometry x="910" y="505" width="110" height="30" as="geometry" />
        </mxCell>
        <mxCell id="kAIDbHxkt5lAU41MDpZ3-64" value="&lt;b&gt;&lt;font style=&quot;font-size: 16px;&quot;&gt;利率：5%&lt;/font&gt;&lt;/b&gt;" style="text;html=1;strokeColor=none;fillColor=none;align=center;verticalAlign=middle;whiteSpace=wrap;rounded=0;" vertex="1" parent="1">
          <mxGeometry x="335" y="535" width="90" height="30" as="geometry" />
        </mxCell>
        <mxCell id="kAIDbHxkt5lAU41MDpZ3-65" value="&lt;font style=&quot;font-size: 16px;&quot;&gt;&lt;b&gt;提款额度：10000&lt;/b&gt;&lt;/font&gt;" style="text;html=1;strokeColor=none;fillColor=none;align=center;verticalAlign=middle;whiteSpace=wrap;rounded=0;" vertex="1" parent="1">
          <mxGeometry x="600" y="535" width="130" height="30" as="geometry" />
        </mxCell>
        <mxCell id="kAIDbHxkt5lAU41MDpZ3-66" value="&lt;b&gt;&lt;font style=&quot;font-size: 16px;&quot;&gt;存款&lt;/font&gt;&lt;/b&gt;" style="rounded=1;whiteSpace=wrap;html=1;" vertex="1" parent="1">
          <mxGeometry x="347.5" y="575" width="95" height="40" as="geometry" />
        </mxCell>
        <mxCell id="kAIDbHxkt5lAU41MDpZ3-67" value="&lt;font size=&quot;1&quot; style=&quot;&quot;&gt;&lt;b style=&quot;font-size: 16px;&quot;&gt;取款&lt;/b&gt;&lt;/font&gt;" style="rounded=1;whiteSpace=wrap;html=1;" vertex="1" parent="1">
          <mxGeometry x="600" y="575" width="95" height="40" as="geometry" />
        </mxCell>
        <mxCell id="kAIDbHxkt5lAU41MDpZ3-68" value="&lt;b&gt;&lt;font style=&quot;font-size: 16px;&quot;&gt;转账&lt;/font&gt;&lt;/b&gt;" style="rounded=1;whiteSpace=wrap;html=1;" vertex="1" parent="1">
          <mxGeometry x="910" y="575" width="95" height="40" as="geometry" />
        </mxCell>
        <mxCell id="kAIDbHxkt5lAU41MDpZ3-69" value="&lt;b&gt;&lt;font style=&quot;font-size: 18px;&quot;&gt;账户号：123457&lt;/font&gt;&lt;/b&gt;" style="text;html=1;strokeColor=none;fillColor=none;align=center;verticalAlign=middle;whiteSpace=wrap;rounded=0;" vertex="1" parent="1">
          <mxGeometry x="300" y="470" width="215" height="30" as="geometry" />
        </mxCell>
      </root>
    </mxGraphModel>
  </diagram>
</mxfile>
